<?xml version="1.0" encoding="iso-8859-1"?>
<!-- Uploaded to: SVG Repo, www.svgrepo.com, Generator: SVG Repo Mixer Tools -->
<svg version="1.1" id="Layer_1" xmlns="http://www.w3.org/2000/svg" xmlns:xlink="http://www.w3.org/1999/xlink" 
	 viewBox="0 0 512 512" xml:space="preserve">
<circle style="fill:#E6E5E5;" cx="256" cy="256" r="256"/>
<path style="fill:#FFFFFF;" d="M356,456.376H156c-6.6,0-12-5.4-12-12v-376c0-6.6,5.4-12,12-12h200c6.6,0,12,5.4,12,12v376
	C368,450.976,362.6,456.376,356,456.376z"/>
<rect x="156" y="88.4" style="fill:#232323;" width="200" height="320"/>
<g>
	<path style="fill:#CCCBCA;" d="M279.792,76.376h-48c-2.2,0-4-1.8-4-4l0,0c0-2.2,1.8-4,4-4h48c2.2,0,4,1.8,4,4l0,0
		C283.792,74.576,281.992,76.376,279.792,76.376z"/>
	<path style="fill:#CCCBCA;" d="M280,432.376h-48c-2.2,0-4-1.8-4-4l0,0c0-2.2,1.8-4,4-4h48c2.2,0,4,1.8,4,4l0,0
		C284,430.576,282.2,432.376,280,432.376z"/>
</g>
<polygon style="fill:#FFFFFF;" points="225.76,338.424 246.384,317.392 246.384,368.136 265.616,368.136 265.616,317.392 
	286.24,338.424 299.976,325.024 256,280.192 212.024,325.024 "/>
<rect x="196.816" y="210.432" style="fill:#DB2B42;" width="15.784" height="34.616"/>
<rect x="222.464" y="190.648" style="fill:#8AD5DD;" width="15.784" height="54.4"/>
<rect x="248.08" y="168.4" style="fill:#DB2B42;" width="15.784" height="76.656"/>
<rect x="273.76" y="146.136" style="fill:#8AD5DD;" width="15.784" height="98.912"/>
<rect x="299.4" y="131.304" style="fill:#DB2B42;" width="15.784" height="113.744"/>
</svg>